<?xml version="1.0" encoding="UTF-8"?>
<svg width="557px" height="557px" viewBox="0 0 557 557" version="1.1" xmlns="http://www.w3.org/2000/svg" xmlns:xlink="http://www.w3.org/1999/xlink">
    <title>outlined</title>
    <defs>
        <polygon id="path-1" points="51.12 57.12 64.16 15.76 52.48 15.76 44.88 43.76 44.72 43.76 37.68 15.76 26.64 15.76 19.76 43.84 19.6 43.84 12 15.76 0 15.76 13.12 57.12 24.88 57.12 31.92 29.36 32.08 29.36 39.44 57.12"></polygon>
        <path d="M78.0643902,36.48 C78.0643902,34.8266667 78.2243902,33.2 78.5443902,31.6 C78.8643902,30 79.4110569,28.5866667 80.1843902,27.36 C80.9577236,26.1333333 81.9843902,25.1333333 83.2643902,24.36 C84.5443902,23.5866667 86.1443902,23.2 88.0643902,23.2 C89.9843902,23.2 91.5977236,23.5866667 92.9043902,24.36 C94.2110569,25.1333333 95.2510569,26.1333333 96.0243902,27.36 C96.7977236,28.5866667 97.3443902,30 97.6643902,31.6 C97.9843902,33.2 98.1443902,34.8266667 98.1443902,36.48 C98.1443902,38.1333333 97.9843902,39.7466667 97.6643902,41.32 C97.3443902,42.8933333 96.7977236,44.3066667 96.0243902,45.56 C95.2510569,46.8133333 94.2110569,47.8133333 92.9043902,48.56 C91.5977236,49.3066667 89.9843902,49.68 88.0643902,49.68 C86.1443902,49.68 84.5443902,49.3066667 83.2643902,48.56 C81.9843902,47.8133333 80.9577236,46.8133333 80.1843902,45.56 C79.4110569,44.3066667 78.8643902,42.8933333 78.5443902,41.32 C78.2243902,39.7466667 78.0643902,38.1333333 78.0643902,36.48 Z M66.7043902,36.48 C66.7043902,39.7866667 67.2110569,42.7733333 68.2243902,45.44 C69.2377236,48.1066667 70.6777236,50.3866667 72.5443902,52.28 C74.4110569,54.1733333 76.6510569,55.6266667 79.2643902,56.64 C81.8777236,57.6533333 84.8110569,58.16 88.0643902,58.16 C91.3177236,58.16 94.2643902,57.6533333 96.9043902,56.64 C99.5443902,55.6266667 101.797724,54.1733333 103.66439,52.28 C105.531057,50.3866667 106.971057,48.1066667 107.98439,45.44 C108.997724,42.7733333 109.50439,39.7866667 109.50439,36.48 C109.50439,33.1733333 108.997724,30.1733333 107.98439,27.48 C106.971057,24.7866667 105.531057,22.4933333 103.66439,20.6 C101.797724,18.7066667 99.5443902,17.24 96.9043902,16.2 C94.2643902,15.16 91.3177236,14.64 88.0643902,14.64 C84.8110569,14.64 81.8777236,15.16 79.2643902,16.2 C76.6510569,17.24 74.4110569,18.7066667 72.5443902,20.6 C70.6777236,22.4933333 69.2377236,24.7866667 68.2243902,27.48 C67.2110569,30.1733333 66.7043902,33.1733333 66.7043902,36.48 Z" id="path-2"></path>
        <path d="M115.88878,15.76 L115.88878,57.12 L127.24878,57.12 L127.24878,38.48 C127.24878,36.6133333 127.435447,34.88 127.80878,33.28 C128.182114,31.68 128.80878,30.28 129.68878,29.08 C130.56878,27.88 131.72878,26.9333333 133.16878,26.24 C134.60878,25.5466667 136.36878,25.2 138.44878,25.2 C139.142114,25.2 139.862114,25.24 140.60878,25.32 C141.355447,25.4 141.995447,25.4933333 142.52878,25.6 L142.52878,15.04 C141.622114,14.7733333 140.795447,14.64 140.04878,14.64 C138.60878,14.64 137.222114,14.8533333 135.88878,15.28 C134.555447,15.7066667 133.302114,16.3066667 132.12878,17.08 C130.955447,17.8533333 129.915447,18.7866667 129.00878,19.88 C128.102114,20.9733333 127.382114,22.16 126.84878,23.44 L126.68878,23.44 L126.68878,15.76 L115.88878,15.76 Z" id="path-3"></path>
        <polygon id="path-4" points="147.073171 0 147.073171 57.12 158.433171 57.12 158.433171 42.88 162.833171 38.64 174.193171 57.12 187.953171 57.12 170.593171 30.96 186.193171 15.76 172.753171 15.76 158.433171 30.64 158.433171 0"></polygon>
        <path d="M199.777561,43.68 L188.977561,43.68 C189.084228,46.4533333 189.710894,48.76 190.857561,50.6 C192.004228,52.44 193.470894,53.92 195.257561,55.04 C197.044228,56.16 199.084228,56.96 201.377561,57.44 C203.670894,57.92 206.017561,58.16 208.417561,58.16 C210.764228,58.16 213.070894,57.9333333 215.337561,57.48 C217.604228,57.0266667 219.617561,56.24 221.377561,55.12 C223.137561,54 224.564228,52.52 225.657561,50.68 C226.750894,48.84 227.297561,46.56 227.297561,43.84 C227.297561,41.92 226.924228,40.3066667 226.177561,39 C225.430894,37.6933333 224.444228,36.6 223.217561,35.72 C221.990894,34.84 220.590894,34.1333333 219.017561,33.6 C217.444228,33.0666667 215.830894,32.6133333 214.177561,32.24 C212.577561,31.8666667 211.004228,31.52 209.457561,31.2 C207.910894,30.88 206.537561,30.52 205.337561,30.12 C204.137561,29.72 203.164228,29.2 202.417561,28.56 C201.670894,27.92 201.297561,27.0933333 201.297561,26.08 C201.297561,25.2266667 201.510894,24.5466667 201.937561,24.04 C202.364228,23.5333333 202.884228,23.1466667 203.497561,22.88 C204.110894,22.6133333 204.790894,22.44 205.537561,22.36 C206.284228,22.28 206.977561,22.24 207.617561,22.24 C209.644228,22.24 211.404228,22.6266667 212.897561,23.4 C214.390894,24.1733333 215.217561,25.6533333 215.377561,27.84 L226.177561,27.84 C225.964228,25.28 225.310894,23.16 224.217561,21.48 C223.124228,19.8 221.750894,18.4533333 220.097561,17.44 C218.444228,16.4266667 216.564228,15.7066667 214.457561,15.28 C212.350894,14.8533333 210.177561,14.64 207.937561,14.64 C205.697561,14.64 203.510894,14.84 201.377561,15.24 C199.244228,15.64 197.324228,16.3333333 195.617561,17.32 C193.910894,18.3066667 192.537561,19.6533333 191.497561,21.36 C190.457561,23.0666667 189.937561,25.2533333 189.937561,27.92 C189.937561,29.7333333 190.310894,31.2666667 191.057561,32.52 C191.804228,33.7733333 192.790894,34.8133333 194.017561,35.64 C195.244228,36.4666667 196.644228,37.1333333 198.217561,37.64 C199.790894,38.1466667 201.404228,38.5866667 203.057561,38.96 C207.110894,39.8133333 210.270894,40.6666667 212.537561,41.52 C214.804228,42.3733333 215.937561,43.6533333 215.937561,45.36 C215.937561,46.3733333 215.697561,47.2133333 215.217561,47.88 C214.737561,48.5466667 214.137561,49.08 213.417561,49.48 C212.697561,49.88 211.897561,50.1733333 211.017561,50.36 C210.137561,50.5466667 209.297561,50.64 208.497561,50.64 C207.377561,50.64 206.297561,50.5066667 205.257561,50.24 C204.217561,49.9733333 203.297561,49.56 202.497561,49 C201.697561,48.44 201.044228,47.72 200.537561,46.84 C200.030894,45.96 199.777561,44.9066667 199.777561,43.68 Z" id="path-5"></path>
        <path d="M253.841951,49.68 C252.028618,49.68 250.481951,49.3066667 249.201951,48.56 C247.921951,47.8133333 246.895285,46.84 246.121951,45.64 C245.348618,44.44 244.788618,43.04 244.441951,41.44 C244.095285,39.84 243.921951,38.2133333 243.921951,36.56 C243.921951,34.8533333 244.081951,33.2 244.401951,31.6 C244.721951,30 245.268618,28.5866667 246.041951,27.36 C246.815285,26.1333333 247.828618,25.1333333 249.081951,24.36 C250.335285,23.5866667 251.895285,23.2 253.761951,23.2 C255.575285,23.2 257.108618,23.5866667 258.361951,24.36 C259.615285,25.1333333 260.641951,26.1466667 261.441951,27.4 C262.241951,28.6533333 262.815285,30.08 263.161951,31.68 C263.508618,33.28 263.681951,34.9066667 263.681951,36.56 C263.681951,38.2133333 263.521951,39.84 263.201951,41.44 C262.881951,43.04 262.335285,44.44 261.561951,45.64 C260.788618,46.84 259.775285,47.8133333 258.521951,48.56 C257.268618,49.3066667 255.708618,49.68 253.841951,49.68 Z M232.961951,15.76 L232.961951,71.6 L244.321951,71.6 L244.321951,52 L244.481951,52 C245.868618,54.0266667 247.641951,55.56 249.801951,56.6 C251.961951,57.64 254.321951,58.16 256.881951,58.16 C259.921951,58.16 262.575285,57.5733333 264.841951,56.4 C267.108618,55.2266667 269.001951,53.6533333 270.521951,51.68 C272.041951,49.7066667 273.175285,47.44 273.921951,44.88 C274.668618,42.32 275.041951,39.6533333 275.041951,36.88 C275.041951,33.9466667 274.668618,31.1333333 273.921951,28.44 C273.175285,25.7466667 272.028618,23.3866667 270.481951,21.36 C268.935285,19.3333333 266.988618,17.7066667 264.641951,16.48 C262.295285,15.2533333 259.495285,14.64 256.241951,14.64 C253.681951,14.64 251.335285,15.1466667 249.201951,16.16 C247.068618,17.1733333 245.308618,18.8 243.921951,21.04 L243.761951,21.04 L243.761951,15.76 L232.961951,15.76 Z" id="path-6"></path>
        <path d="M280.386341,28.48 C280.546341,25.8133333 281.213008,23.6 282.386341,21.84 C283.559675,20.08 285.053008,18.6666667 286.866341,17.6 C288.679675,16.5333333 290.719675,15.7733333 292.986341,15.32 C295.253008,14.8666667 297.533008,14.64 299.826341,14.64 C301.906341,14.64 304.013008,14.7866667 306.146341,15.08 C308.279675,15.3733333 310.226341,15.9466667 311.986341,16.8 C313.746341,17.6533333 315.186341,18.84 316.306341,20.36 C317.426341,21.88 317.986341,23.8933333 317.986341,26.4 L317.986341,47.92 C317.986341,49.7866667 318.093008,51.5733333 318.306341,53.28 C318.519675,54.9866667 318.893008,56.2666667 319.426341,57.12 L307.906341,57.12 C307.693008,56.48 307.519675,55.8266667 307.386341,55.16 C307.253008,54.4933333 307.159675,53.8133333 307.106341,53.12 C305.293008,54.9866667 303.159675,56.2933333 300.706341,57.04 C298.253008,57.7866667 295.746341,58.16 293.186341,58.16 C291.213008,58.16 289.373008,57.92 287.666341,57.44 C285.959675,56.96 284.466341,56.2133333 283.186341,55.2 C281.906341,54.1866667 280.906341,52.9066667 280.186341,51.36 C279.466341,49.8133333 279.106341,47.9733333 279.106341,45.84 C279.106341,43.4933333 279.519675,41.56 280.346341,40.04 C281.173008,38.52 282.239675,37.3066667 283.546341,36.4 C284.853008,35.4933333 286.346341,34.8133333 288.026341,34.36 C289.706341,33.9066667 291.399675,33.5466667 293.106341,33.28 C294.813008,33.0133333 296.493008,32.8 298.146341,32.64 C299.799675,32.48 301.266341,32.24 302.546341,31.92 C303.826341,31.6 304.839675,31.1333333 305.586341,30.52 C306.333008,29.9066667 306.679675,29.0133333 306.626341,27.84 C306.626341,26.6133333 306.426341,25.64 306.026341,24.92 C305.626341,24.2 305.093008,23.64 304.426341,23.24 C303.759675,22.84 302.986341,22.5733333 302.106341,22.44 C301.226341,22.3066667 300.279675,22.24 299.266341,22.24 C297.026341,22.24 295.266341,22.72 293.986341,23.68 C292.706341,24.64 291.959675,26.24 291.746341,28.48 L280.386341,28.48 Z M306.626341,36.88 C306.146341,37.3066667 305.546341,37.64 304.826341,37.88 C304.106341,38.12 303.333008,38.32 302.506341,38.48 C301.679675,38.64 300.813008,38.7733333 299.906341,38.88 C298.999675,38.9866667 298.093008,39.12 297.186341,39.28 C296.333008,39.44 295.493008,39.6533333 294.666341,39.92 C293.839675,40.1866667 293.119675,40.5466667 292.506341,41 C291.893008,41.4533333 291.399675,42.0266667 291.026341,42.72 C290.653008,43.4133333 290.466341,44.2933333 290.466341,45.36 C290.466341,46.3733333 290.653008,47.2266667 291.026341,47.92 C291.399675,48.6133333 291.906341,49.16 292.546341,49.56 C293.186341,49.96 293.933008,50.24 294.786341,50.4 C295.639675,50.56 296.519675,50.64 297.426341,50.64 C299.666341,50.64 301.399675,50.2666667 302.626341,49.52 C303.853008,48.7733333 304.759675,47.88 305.346341,46.84 C305.933008,45.8 306.293008,44.7466667 306.426341,43.68 C306.559675,42.6133333 306.626341,41.76 306.626341,41.12 L306.626341,36.88 Z" id="path-7"></path>
        <path d="M353.970732,30.32 L365.090732,30.32 C364.930732,27.6533333 364.290732,25.3466667 363.170732,23.4 C362.050732,21.4533333 360.597398,19.8266667 358.810732,18.52 C357.024065,17.2133333 354.997398,16.24 352.730732,15.6 C350.464065,14.96 348.104065,14.64 345.650732,14.64 C342.290732,14.64 339.304065,15.2 336.690732,16.32 C334.077398,17.44 331.864065,19 330.050732,21 C328.237398,23 326.864065,25.3733333 325.930732,28.12 C324.997398,30.8666667 324.530732,33.84 324.530732,37.04 C324.530732,40.1333333 325.037398,42.9733333 326.050732,45.56 C327.064065,48.1466667 328.477398,50.3733333 330.290732,52.24 C332.104065,54.1066667 334.304065,55.56 336.890732,56.6 C339.477398,57.64 342.317398,58.16 345.410732,58.16 C350.904065,58.16 355.410732,56.72 358.930732,53.84 C362.450732,50.96 364.584065,46.7733333 365.330732,41.28 L354.370732,41.28 C353.997398,43.84 353.077398,45.88 351.610732,47.4 C350.144065,48.92 348.050732,49.68 345.330732,49.68 C343.570732,49.68 342.077398,49.28 340.850732,48.48 C339.624065,47.68 338.650732,46.6533333 337.930732,45.4 C337.210732,44.1466667 336.690732,42.7466667 336.370732,41.2 C336.050732,39.6533333 335.890732,38.1333333 335.890732,36.64 C335.890732,35.0933333 336.050732,33.5333333 336.370732,31.96 C336.690732,30.3866667 337.237398,28.9466667 338.010732,27.64 C338.784065,26.3333333 339.784065,25.2666667 341.010732,24.44 C342.237398,23.6133333 343.757398,23.2 345.570732,23.2 C350.424065,23.2 353.224065,25.5733333 353.970732,30.32 Z" id="path-8"></path>
        <path d="M398.595122,32 L380.115122,32 C380.168455,31.2 380.341789,30.2933333 380.635122,29.28 C380.928455,28.2666667 381.435122,27.3066667 382.155122,26.4 C382.875122,25.4933333 383.835122,24.7333333 385.035122,24.12 C386.235122,23.5066667 387.741789,23.2 389.555122,23.2 C392.328455,23.2 394.395122,23.9466667 395.755122,25.44 C397.115122,26.9333333 398.061789,29.12 398.595122,32 Z M380.115122,39.2 L409.955122,39.2 C410.168455,36 409.901789,32.9333333 409.155122,30 C408.408455,27.0666667 407.195122,24.4533333 405.515122,22.16 C403.835122,19.8666667 401.688455,18.04 399.075122,16.68 C396.461789,15.32 393.395122,14.64 389.875122,14.64 C386.728455,14.64 383.861789,15.2 381.275122,16.32 C378.688455,17.44 376.461789,18.9733333 374.595122,20.92 C372.728455,22.8666667 371.288455,25.1733333 370.275122,27.84 C369.261789,30.5066667 368.755122,33.3866667 368.755122,36.48 C368.755122,39.68 369.248455,42.6133333 370.235122,45.28 C371.221789,47.9466667 372.621789,50.24 374.435122,52.16 C376.248455,54.08 378.461789,55.56 381.075122,56.6 C383.688455,57.64 386.621789,58.16 389.875122,58.16 C394.568455,58.16 398.568455,57.0933333 401.875122,54.96 C405.181789,52.8266667 407.635122,49.28 409.235122,44.32 L399.235122,44.32 C398.861789,45.6 397.848455,46.8133333 396.195122,47.96 C394.541789,49.1066667 392.568455,49.68 390.275122,49.68 C387.075122,49.68 384.621789,48.8533333 382.915122,47.2 C381.208455,45.5466667 380.275122,42.88 380.115122,39.2 Z" id="path-9"></path>
        <polygon id="path-10" points="0 0 0 88.536 17.608 88.536 17.608 0"></polygon>
        <polygon id="path-11" points="30.4798049 0 30.4798049 88.536 48.0878049 88.536 48.0878049 0"></polygon>
        <path d="M59.7196098,44.144 C59.9676098,40.0106667 61.0009431,36.58 62.8196098,33.852 C64.6382764,31.124 66.9529431,28.9333333 69.7636098,27.28 C72.5742764,25.6266667 75.7362764,24.4486667 79.2496098,23.746 C82.7629431,23.0433333 86.2969431,22.692 89.8516098,22.692 C93.0756098,22.692 96.3409431,22.9193333 99.6476098,23.374 C102.954276,23.8286667 105.97161,24.7173333 108.69961,26.04 C111.42761,27.3626667 113.65961,29.202 115.39561,31.558 C117.13161,33.914 117.99961,37.0346667 117.99961,40.92 L117.99961,74.276 C117.99961,77.1693333 118.164943,79.9386667 118.49561,82.584 C118.826276,85.2293333 119.404943,87.2133333 120.23161,88.536 L102.37561,88.536 C102.044943,87.544 101.776276,86.5313333 101.56961,85.498 C101.362943,84.4646667 101.218276,83.4106667 101.13561,82.336 C98.3249431,85.2293333 95.0182764,87.2546667 91.2156098,88.412 C87.4129431,89.5693333 83.5276098,90.148 79.5596098,90.148 C76.5009431,90.148 73.6489431,89.776 71.0036098,89.032 C68.3582764,88.288 66.0436098,87.1306667 64.0596098,85.56 C62.0756098,83.9893333 60.5256098,82.0053333 59.4096098,79.608 C58.2936098,77.2106667 57.7356098,74.3586667 57.7356098,71.052 C57.7356098,67.4146667 58.3762764,64.418 59.6576098,62.062 C60.9389431,59.706 62.5922764,57.8253333 64.6176098,56.42 C66.6429431,55.0146667 68.9576098,53.9606667 71.5616098,53.258 C74.1656098,52.5553333 76.7902764,51.9973333 79.4356098,51.584 C82.0809431,51.1706667 84.6849431,50.84 87.2476098,50.592 C89.8102764,50.344 92.0836098,49.972 94.0676098,49.476 C96.0516098,48.98 97.6222764,48.2566667 98.7796098,47.306 C99.9369431,46.3553333 100.474276,44.9706667 100.39161,43.152 C100.39161,41.2506667 100.08161,39.742 99.4616098,38.626 C98.8416098,37.51 98.0149431,36.642 96.9816098,36.022 C95.9482764,35.402 94.7496098,34.9886667 93.3856098,34.782 C92.0216098,34.5753333 90.5542764,34.472 88.9836098,34.472 C85.5116098,34.472 82.7836098,35.216 80.7996098,36.704 C78.8156098,38.192 77.6582764,40.672 77.3276098,44.144 L59.7196098,44.144 Z M100.39161,57.164 C99.6476098,57.8253333 98.7176098,58.342 97.6016098,58.714 C96.4856098,59.086 95.2869431,59.396 94.0056098,59.644 C92.7242764,59.892 91.3809431,60.0986667 89.9756098,60.264 C88.5702764,60.4293333 87.1649431,60.636 85.7596098,60.884 C84.4369431,61.132 83.1349431,61.4626667 81.8536098,61.876 C80.5722764,62.2893333 79.4562764,62.8473333 78.5056098,63.55 C77.5549431,64.2526667 76.7902764,65.1413333 76.2116098,66.216 C75.6329431,67.2906667 75.3436098,68.6546667 75.3436098,70.308 C75.3436098,71.8786667 75.6329431,73.2013333 76.2116098,74.276 C76.7902764,75.3506667 77.5756098,76.198 78.5676098,76.818 C79.5596098,77.438 80.7169431,77.872 82.0396098,78.12 C83.3622764,78.368 84.7262764,78.492 86.1316098,78.492 C89.6036098,78.492 92.2902764,77.9133333 94.1916098,76.756 C96.0929431,75.5986667 97.4982764,74.214 98.4076098,72.602 C99.3169431,70.99 99.8749431,69.3573333 100.08161,67.704 C100.288276,66.0506667 100.39161,64.728 100.39161,63.736 L100.39161,57.164 Z" id="path-12"></path>
        <path d="M130.623415,24.428 L130.623415,88.536 L148.231415,88.536 L148.231415,51.336 C148.231415,48.1946667 148.686081,45.6526667 149.595415,43.71 C150.504748,41.7673333 151.600081,40.2793333 152.881415,39.246 C154.162748,38.2126667 155.485415,37.51 156.849415,37.138 C158.213415,36.766 159.308748,36.58 160.135415,36.58 C162.946081,36.58 165.074748,37.0553333 166.521415,38.006 C167.968081,38.9566667 169.001415,40.2173333 169.621415,41.788 C170.241415,43.3586667 170.592748,45.074 170.675415,46.934 C170.758081,48.794 170.799415,50.6746667 170.799415,52.576 L170.799415,88.536 L188.407415,88.536 L188.407415,52.824 C188.407415,50.84 188.552081,48.8766667 188.841415,46.934 C189.130748,44.9913333 189.709415,43.2553333 190.577415,41.726 C191.445415,40.1966667 192.644081,38.9566667 194.173415,38.006 C195.702748,37.0553333 197.707415,36.58 200.187415,36.58 C202.667415,36.58 204.630748,36.9933333 206.077415,37.82 C207.524081,38.6466667 208.619415,39.7626667 209.363415,41.168 C210.107415,42.5733333 210.562081,44.2266667 210.727415,46.128 C210.892748,48.0293333 210.975415,50.0546667 210.975415,52.204 L210.975415,88.536 L228.583415,88.536 L228.583415,45.632 C228.583415,41.4986667 228.004748,37.9646667 226.847415,35.03 C225.690081,32.0953333 224.078081,29.7186667 222.011415,27.9 C219.944748,26.0813333 217.464748,24.7586667 214.571415,23.932 C211.678081,23.1053333 208.536748,22.692 205.147415,22.692 C200.683415,22.692 196.818748,23.7666667 193.553415,25.916 C190.288081,28.0653333 187.704748,30.5453333 185.803415,33.356 C184.067415,29.388 181.525415,26.6186667 178.177415,25.048 C174.829415,23.4773333 171.130081,22.692 167.079415,22.692 C162.863415,22.692 159.122748,23.6013333 155.857415,25.42 C152.592081,27.2386667 149.802081,29.8013333 147.487415,33.108 L147.239415,33.108 L147.239415,24.428 L130.623415,24.428 Z" id="path-13"></path>
        <path d="M240.21522,44.144 C240.46322,40.0106667 241.496553,36.58 243.31522,33.852 C245.133886,31.124 247.448553,28.9333333 250.25922,27.28 C253.069886,25.6266667 256.231886,24.4486667 259.74522,23.746 C263.258553,23.0433333 266.792553,22.692 270.34722,22.692 C273.57122,22.692 276.836553,22.9193333 280.14322,23.374 C283.449886,23.8286667 286.46722,24.7173333 289.19522,26.04 C291.92322,27.3626667 294.15522,29.202 295.89122,31.558 C297.62722,33.914 298.49522,37.0346667 298.49522,40.92 L298.49522,74.276 C298.49522,77.1693333 298.660553,79.9386667 298.99122,82.584 C299.321886,85.2293333 299.900553,87.2133333 300.72722,88.536 L282.87122,88.536 C282.540553,87.544 282.271886,86.5313333 282.06522,85.498 C281.858553,84.4646667 281.713886,83.4106667 281.63122,82.336 C278.820553,85.2293333 275.513886,87.2546667 271.71122,88.412 C267.908553,89.5693333 264.02322,90.148 260.05522,90.148 C256.996553,90.148 254.144553,89.776 251.49922,89.032 C248.853886,88.288 246.53922,87.1306667 244.55522,85.56 C242.57122,83.9893333 241.02122,82.0053333 239.90522,79.608 C238.78922,77.2106667 238.23122,74.3586667 238.23122,71.052 C238.23122,67.4146667 238.871886,64.418 240.15322,62.062 C241.434553,59.706 243.087886,57.8253333 245.11322,56.42 C247.138553,55.0146667 249.45322,53.9606667 252.05722,53.258 C254.66122,52.5553333 257.285886,51.9973333 259.93122,51.584 C262.576553,51.1706667 265.180553,50.84 267.74322,50.592 C270.305886,50.344 272.57922,49.972 274.56322,49.476 C276.54722,48.98 278.117886,48.2566667 279.27522,47.306 C280.432553,46.3553333 280.969886,44.9706667 280.88722,43.152 C280.88722,41.2506667 280.57722,39.742 279.95722,38.626 C279.33722,37.51 278.510553,36.642 277.47722,36.022 C276.443886,35.402 275.24522,34.9886667 273.88122,34.782 C272.51722,34.5753333 271.049886,34.472 269.47922,34.472 C266.00722,34.472 263.27922,35.216 261.29522,36.704 C259.31122,38.192 258.153886,40.672 257.82322,44.144 L240.21522,44.144 Z M280.88722,57.164 C280.14322,57.8253333 279.21322,58.342 278.09722,58.714 C276.98122,59.086 275.782553,59.396 274.50122,59.644 C273.219886,59.892 271.876553,60.0986667 270.47122,60.264 C269.065886,60.4293333 267.660553,60.636 266.25522,60.884 C264.932553,61.132 263.630553,61.4626667 262.34922,61.876 C261.067886,62.2893333 259.951886,62.8473333 259.00122,63.55 C258.050553,64.2526667 257.285886,65.1413333 256.70722,66.216 C256.128553,67.2906667 255.83922,68.6546667 255.83922,70.308 C255.83922,71.8786667 256.128553,73.2013333 256.70722,74.276 C257.285886,75.3506667 258.07122,76.198 259.06322,76.818 C260.05522,77.438 261.212553,77.872 262.53522,78.12 C263.857886,78.368 265.221886,78.492 266.62722,78.492 C270.09922,78.492 272.785886,77.9133333 274.68722,76.756 C276.588553,75.5986667 277.993886,74.214 278.90322,72.602 C279.812553,70.99 280.370553,69.3573333 280.57722,67.704 C280.783886,66.0506667 280.88722,64.728 280.88722,63.736 L280.88722,57.164 Z" id="path-14"></path>
    </defs>
    <g id="Page-1" stroke="none" stroke-width="1" fill="none" fill-rule="evenodd">
        <g id="Finales" transform="translate(-197, -1205)">
            <g id="outlined" transform="translate(197, 1205)">
                <rect id="Rectangle" fill="#000000" x="0" y="0" width="557" height="557"></rect>
                <g id="Group-12" transform="translate(49.48, 310.464)" fill-rule="nonzero">
                    <g id="workspace" transform="translate(0, 130.416)">
                        <g id="Path">
                            <use fill="#000000" xlink:href="#path-1"></use>
                            <use fill="#FFFFFF" xlink:href="#path-1"></use>
                        </g>
                        <g id="Shape">
                            <use fill="#000000" xlink:href="#path-2"></use>
                            <use fill="#FFFFFF" xlink:href="#path-2"></use>
                        </g>
                        <g id="Path">
                            <use fill="#000000" xlink:href="#path-3"></use>
                            <use fill="#FFFFFF" xlink:href="#path-3"></use>
                        </g>
                        <g id="Path">
                            <use fill="#000000" xlink:href="#path-4"></use>
                            <use fill="#FFFFFF" xlink:href="#path-4"></use>
                        </g>
                        <g id="Path">
                            <use fill="#000000" xlink:href="#path-5"></use>
                            <use fill="#FFFFFF" xlink:href="#path-5"></use>
                        </g>
                        <g id="Shape">
                            <use fill="#000000" xlink:href="#path-6"></use>
                            <use fill="#FFFFFF" xlink:href="#path-6"></use>
                        </g>
                        <g id="Shape">
                            <use fill="#000000" xlink:href="#path-7"></use>
                            <use fill="#FFFFFF" xlink:href="#path-7"></use>
                        </g>
                        <g id="Path">
                            <use fill="#000000" xlink:href="#path-8"></use>
                            <use fill="#FFFFFF" xlink:href="#path-8"></use>
                        </g>
                        <g id="Shape">
                            <use fill="#000000" xlink:href="#path-9"></use>
                            <use fill="#FFFFFF" xlink:href="#path-9"></use>
                        </g>
                    </g>
                    <g id="llama" transform="translate(6.712, 0)">
                        <g id="Path">
                            <use fill="#000000" xlink:href="#path-10"></use>
                            <use fill="#FFFFFF" xlink:href="#path-10"></use>
                        </g>
                        <g id="Path">
                            <use fill="#000000" xlink:href="#path-11"></use>
                            <use fill="#FFFFFF" xlink:href="#path-11"></use>
                        </g>
                        <g id="Shape">
                            <use fill="#000000" xlink:href="#path-12"></use>
                            <use fill="#FFFFFF" xlink:href="#path-12"></use>
                        </g>
                        <g id="Path">
                            <use fill="#000000" xlink:href="#path-13"></use>
                            <use fill="#FFFFFF" xlink:href="#path-13"></use>
                        </g>
                        <g id="Shape">
                            <use fill="#000000" xlink:href="#path-14"></use>
                            <use fill="#FFFFFF" xlink:href="#path-14"></use>
                        </g>
                    </g>
                </g>
            </g>
        </g>
    </g>
</svg>