<?xml version="1.0" encoding="UTF-8"?>
<svg width="557px" height="557px" viewBox="0 0 557 557" version="1.1" xmlns="http://www.w3.org/2000/svg" xmlns:xlink="http://www.w3.org/1999/xlink">
    <title>Group 10</title>
    <defs>
        <polygon id="path-1" points="124.399565 103.232153 156.132161 2.72175168 127.709099 2.72175168 109.214641 70.7655436 108.825284 70.7655436 91.693576 2.72175168 64.8279423 2.72175168 48.0855908 70.9599544 47.6962338 70.9599544 29.2017758 2.72175168 0 2.72175168 31.9272749 103.232153 60.5450151 103.232153 77.6767236 35.7715934 78.0660806 35.7715934 95.9765031 103.232153"></polygon>
        <path d="M186.853379,70.5711327 L160.571781,70.5711327 C160.831352,77.3107083 162.356334,82.9162207 165.146726,87.3876699 C167.937118,91.859119 171.506224,95.4557195 175.854043,98.1774711 C180.201863,100.899223 185.166165,102.843331 190.746949,104.009796 C196.327733,105.176261 202.038302,105.759494 207.878658,105.759494 C213.589227,105.759494 219.202457,105.208663 224.718348,104.107002 C230.234239,103.00534 235.133648,101.093634 239.416575,98.371882 C243.699503,95.6501303 247.171269,92.0535299 249.831875,87.5820807 C252.492482,83.1106315 253.822785,77.5699227 253.822785,70.9599544 C253.822785,66.2940944 252.914285,62.3734759 251.097286,59.1980989 C249.280286,56.022722 246.879251,53.3657739 243.894181,51.2272547 C240.909111,49.0887356 237.502237,47.3714399 233.67356,46.0753676 C229.844882,44.7792954 225.918866,43.677634 221.89551,42.7703835 C218.00194,41.8631329 214.173263,41.020686 210.409478,40.2430426 C206.645694,39.4653993 203.303713,38.5905505 200.383535,37.6184964 C197.463358,36.6464422 195.094769,35.3827718 193.27777,33.8274851 C191.46077,32.2721984 190.552271,30.2632865 190.552271,27.8007493 C190.552271,25.7270337 191.071413,24.0745416 192.109699,22.843273 C193.147984,21.6120044 194.413394,20.672352 195.905929,20.0243159 C197.398465,19.3762798 199.053232,18.9550563 200.870231,18.7606455 C202.687231,18.5662346 204.374444,18.4690292 205.931873,18.4690292 C210.863728,18.4690292 215.146655,19.4086816 218.780654,21.2879863 C222.414653,23.167291 224.426331,26.7638915 224.815688,32.0777876 L251.097286,32.0777876 C250.578143,25.8566409 248.988269,20.7047538 246.327662,16.6221263 C243.667056,12.5394988 240.325075,9.26691642 236.301719,6.80437919 C232.278364,4.34184196 227.703419,2.59214445 222.576885,1.55528667 C217.450351,0.518428891 212.161585,0 206.710587,0 C201.259588,0 195.938376,0.486027085 190.746949,1.45808125 C185.555522,2.43013542 180.883238,4.11502932 176.730097,6.51276294 C172.576955,8.91049656 169.234974,12.1830789 166.704154,16.3305101 C164.173333,20.4779412 162.907923,25.7918373 162.907923,32.2721984 C162.907923,36.678844 163.816423,40.4050517 165.633422,43.4508214 C167.450421,46.4965911 169.851456,49.023932 172.836527,51.0328439 C175.821597,53.0417559 179.228471,54.6618461 183.057148,55.8931148 C186.885825,57.1243834 190.811842,58.193643 194.835198,59.1008935 C204.698909,61.1746091 212.38871,63.2483246 217.904601,65.3220402 C223.420492,67.3957558 226.178437,70.5063291 226.178437,74.6537602 C226.178437,77.1162975 225.594402,79.1576112 224.426331,80.7777015 C223.258259,82.3977918 221.798171,83.693864 220.046064,84.6659182 C218.293958,85.6379724 216.347173,86.3508121 214.205709,86.8044374 C212.064245,87.2580626 210.020121,87.4848753 208.073336,87.4848753 C205.347837,87.4848753 202.719677,87.1608572 200.188857,86.5128211 C197.658036,85.864785 195.419233,84.860329 193.472448,83.4994532 C191.525663,82.1385773 189.935789,80.3888798 188.702825,78.2503607 C187.469861,76.1118415 186.853379,73.5520988 186.853379,70.5711327 Z" id="path-2"></path>
    </defs>
    <g id="Page-1" stroke="none" stroke-width="1" fill="none" fill-rule="evenodd">
        <g id="Group-10">
            <rect id="Rectangle" fill="#000000" x="0" y="0" width="557" height="557"></rect>
            <g id="ws" transform="translate(211.519, 239.7215)" fill-rule="nonzero">
                <g id="Path">
                    <use fill="#000000" xlink:href="#path-1"></use>
                    <use fill="#FFFFFF" xlink:href="#path-1"></use>
                </g>
                <g id="Path">
                    <use fill="#000000" xlink:href="#path-2"></use>
                    <use fill="#FFFFFF" xlink:href="#path-2"></use>
                </g>
            </g>
            <g id="Group" transform="translate(63.4509, 141.0131)" fill="#FFFFFF" fill-rule="nonzero">
                <polygon id="Path" transform="translate(76.9037, 61.653) rotate(7) translate(-76.9037, -61.653)" points="28.9754315 62.6887109 45.0528902 41.613941 114.755677 46.7558946 124.832042 61.4546161 81.6856403 81.6921089"></polygon>
                <polygon id="Path" transform="translate(61.0703, 163.1784) rotate(7) translate(-61.0703, -163.1784)" points="63.4644561 89.955767 10.8700215 70.9139585 15.5775446 234.390481 111.270578 255.44284"></polygon>
                <polygon id="Path" transform="translate(34.4511, 22.9197) rotate(7) translate(-34.4511, -22.9197)" points="41.4080646 0.780409042 26.6933246 23.2207096 27.4265335 45.0590703 42.2088304 28.5013013"></polygon>
            </g>
        </g>
    </g>
</svg>