<?xml version="1.0" encoding="UTF-8"?>
<svg width="216px" height="181px" viewBox="0 0 216 181" version="1.1" xmlns="http://www.w3.org/2000/svg" xmlns:xlink="http://www.w3.org/1999/xlink">
    <title>Shape</title>
    <g id="Page-1" stroke="none" stroke-width="1" fill="none" fill-rule="evenodd">
        <path d="M198.038306,86.4256273 C198.038306,99.9791746 197.832689,137.432424 197.421456,198.785375 C179.726435,178.350701 166.42893,171.057384 157.528939,176.905425 C144.178952,185.677485 127.637003,190.063516 107.90309,190.063516 C88.1213904,190.063516 71.5436005,185.622426 58.1697205,176.740247 C44.7958405,167.858068 34.7638014,155.612608 28.0736032,140.003866 C21.383405,124.395125 18.0383059,106.535712 18.0383059,86.4256273 C18.0383059,66.1347827 21.4404238,48.2182329 28.2446594,32.6759778 C35.0488951,17.1337227 45.1156885,4.94332157 58.4450396,-3.89522573 C71.7743906,-12.733773 88.2604075,-17.1530467 107.90309,-17.1530467 C127.77602,-17.1530467 144.399968,-12.7218262 157.774934,-3.85938536 C171.1499,5.00305552 181.204203,17.2054035 187.937844,32.7476586 C194.671485,48.2899136 198.038306,66.1825699 198.038306,86.4256273 Z M68.2213634,86.4256273 C68.2213634,98.7921138 69.4975922,110.483347 72.05005,121.499327 C74.6025078,132.515306 79.0674909,141.466569 85.4449993,148.353115 C91.8225078,155.23966 100.701051,158.682933 112.080629,158.682933 C123.507993,158.682933 132.355371,155.23966 138.622761,148.353115 C144.890151,141.466569 149.279298,132.515306 151.790202,121.499327 C154.301106,110.483347 155.556558,98.7921138 155.556558,86.4256273 C155.556558,74.0986172 154.301106,62.4058258 151.790202,51.3472532 C149.279298,40.2886805 144.890151,31.2943055 138.622761,24.3641282 C132.355371,17.4339508 123.507993,13.9688621 112.080629,13.9688621 C100.701051,13.9688621 91.8225078,17.4339508 85.4449993,24.3641282 C79.0674909,31.2943055 74.6025078,40.2886805 72.05005,51.3472532 C69.4975922,62.4058258 68.2213634,74.0986172 68.2213634,86.4256273 Z" id="Shape" fill="#F54040" fill-rule="nonzero" transform="translate(108.0383, 90.8162) rotate(90) translate(-108.0383, -90.8162)"></path>
    </g>
</svg>