<?xml version="1.0" encoding="UTF-8"?>
<svg width="90px" height="39.8507843px" viewBox="0 0 90 39.8507843" version="1.1" xmlns="http://www.w3.org/2000/svg" xmlns:xlink="http://www.w3.org/1999/xlink">
    <title>Group</title>
    <g id="Page-1" stroke="none" stroke-width="1" fill="none" fill-rule="evenodd">
        <g id="Group" transform="translate(0, 0)" fill="#F54040" fill-rule="nonzero">
            <path d="M2.26682758,32.7628883 C3.11305055,33.2742407 4.08162438,33.7083267 5.17254905,34.0651463 C6.26347373,34.4219659 7.33200449,34.6003757 8.37814134,34.6003757 C10.7106676,34.6003757 12.3073091,33.9002322 13.1680659,32.4999452 C14.0288227,31.0996583 14.4592011,28.8743558 14.4592011,25.8240379 L14.4592011,0.221121356 C14.917164,0.137477865 15.4279232,0.079713433 15.9914786,0.0478280598 C16.5550341,0.0159426866 17.0629755,-2.87410545e-14 17.5153029,-2.87410545e-14 C17.9753421,-2.87410545e-14 18.47572,0.0159426866 19.0164366,0.0478280598 C19.5571532,0.079713433 20.0536752,0.137477865 20.5060026,0.221121356 L20.5060026,24.9698065 C20.5060026,27.0502159 20.3560672,28.982692 20.0561964,30.7672347 C19.7563255,32.5517775 19.199073,34.1123811 18.3844388,35.4490456 C17.5698046,36.7857101 16.3955331,37.8261373 14.8616241,38.5703271 C13.3277152,39.3145168 11.326871,39.6866117 8.85909141,39.6866117 C7.39622015,39.6866117 5.86327522,39.4763907 4.26025662,39.0559487 C2.65723802,38.6355067 1.23715248,38.0506696 0,37.3014375 C0.158685346,36.4626297 0.430378386,35.6522964 0.815079121,34.8704373 C1.19977986,34.0885783 1.68369601,33.386062 2.26682758,32.7628883 Z" id="Path"></path>
            <path d="M49.9146974,25.9580004 C49.9146974,27.892874 49.8853441,33.2396149 49.8266374,41.998223 C47.3005364,39.0810153 45.4022146,38.0398379 44.1316721,38.8746909 C42.2258583,40.1269704 39.8643671,40.7531102 37.0471986,40.7531102 C34.223208,40.7531102 31.8566004,40.1191103 29.9473756,38.8511106 C28.0381508,37.5831108 26.6059997,35.8349767 25.6509222,33.6067082 C24.6958447,31.3784397 24.2183059,28.8288704 24.2183059,25.9580004 C24.2183059,23.0613255 24.7039845,20.5035995 25.6753418,18.2848224 C26.646699,16.0660453 28.0838116,14.3257713 29.9866795,13.0640004 C31.8895474,11.8022294 34.2430538,11.1713439 37.0471986,11.1713439 C39.8842129,11.1713439 42.25741,11.8039349 44.1667898,13.0691169 C46.0761696,14.3342988 47.5114991,16.0762783 48.4727785,18.2950554 C49.4340578,20.5138324 49.9146974,23.0681474 49.9146974,25.9580004 Z M31.3823253,25.9580004 C31.3823253,27.7234119 31.5645169,29.3924258 31.9288999,30.9650421 C32.293283,32.5376584 32.9306939,33.8155203 33.8411325,34.7986279 C34.7515711,35.7817356 36.0190518,36.2732894 37.6435745,36.2732894 C39.2749192,36.2732894 40.5379507,35.7817356 41.4326691,34.7986279 C42.3273875,33.8155203 42.9539722,32.5376584 43.3124231,30.9650421 C43.670874,29.3924258 43.8500995,27.7234119 43.8500995,25.9580004 C43.8500995,24.1982244 43.670874,22.528988 43.3124231,20.9502913 C42.9539722,19.3715946 42.3273875,18.087578 41.4326691,17.0982416 C40.5379507,16.1089052 39.2749192,15.614237 37.6435745,15.614237 C36.0190518,15.614237 34.7515711,16.1089052 33.8411325,17.0982416 C32.9306939,18.087578 32.293283,19.3715946 31.9288999,20.9502913 C31.5645169,22.528988 31.3823253,24.1982244 31.3823253,25.9580004 Z" id="Shape" transform="translate(37.0665, 26.5848) rotate(90) translate(-37.0665, -26.5848)"></path>
            <path d="M61.4906273,39.1171241 C61.091986,39.1930558 60.6411416,39.2500046 60.1380943,39.2879704 C59.6350469,39.3259363 59.1177623,39.3449192 58.5862406,39.3449192 C58.0547188,39.3449192 57.5326885,39.3259363 57.0201497,39.2879704 C56.5076108,39.2500046 56.0425293,39.1930558 55.6249051,39.1171241 L55.6249051,18.2454038 C55.6249051,17.239309 55.449313,16.4942294 55.098129,16.0101649 C54.746945,15.5261005 54.1062715,15.2840683 53.1761084,15.2840683 L52.5211977,15.2840683 C52.3503514,14.5817002 52.2649282,13.8888237 52.2649282,13.2054385 C52.2649282,12.863746 52.2839112,12.5173077 52.321877,12.1661237 C52.3598428,11.8149397 52.4262831,11.4495185 52.5211977,11.0698601 C53.2425486,10.9749455 53.921188,10.9085052 54.5571158,10.8705394 C55.1930436,10.8325736 55.7198197,10.8135906 56.1374439,10.8135906 L56.8777778,10.8135906 C58.3204797,10.8135906 59.4499634,11.264435 60.266229,12.1661237 C61.0824945,13.0678124 61.4906273,14.2969564 61.4906273,15.8535559 L61.4906273,39.1171241 Z M53.8879679,3.41025189 C53.8879679,2.99262765 53.9306795,2.55127477 54.0161026,2.08619323 C54.1015257,1.6211117 54.2296604,1.20823319 54.4005067,0.847557711 C54.7421993,0.657728512 55.2120266,0.496373693 55.8099885,0.363493254 C56.4079505,0.230612815 56.9821838,0.164172596 57.5326885,0.164172596 C58.0642103,0.164172596 58.6431893,0.230612815 59.2696257,0.363493254 C59.896062,0.496373693 60.3611436,0.657728512 60.6648703,0.847557711 C60.8357166,1.20823319 60.9638513,1.62585743 61.0492744,2.10043042 C61.1346975,2.57500342 61.1774091,3.01161057 61.1774091,3.41025189 C61.1774091,3.80889321 61.1346975,4.24550037 61.0492744,4.72007336 C60.9638513,5.19464636 60.8357166,5.60277914 60.6648703,5.94447169 C60.3991094,6.13430089 59.9435193,6.30040144 59.2981,6.44277334 C58.6526808,6.58514524 58.0642103,6.65633119 57.5326885,6.65633119 C56.9821838,6.65633119 56.4032048,6.58989097 55.7957513,6.45701053 C55.1882979,6.32413009 54.7232164,6.15328381 54.4005067,5.94447169 C54.2296604,5.60277914 54.1015257,5.19464636 54.0161026,4.72007336 C53.9306795,4.24550037 53.8879679,3.80889321 53.8879679,3.41025189 Z" id="Shape"></path>
            <path d="M66.2545918,31.472643 C66.2545918,29.2985055 66.7339847,27.5160389 67.6927705,26.1252435 C68.6515562,24.734448 69.9530727,23.7062559 71.5973198,23.0406673 C73.2415669,22.3750787 75.0903995,22.0422843 77.1438175,22.0422843 C78.206861,22.0422843 79.4100519,22.0888518 80.7533901,22.1819868 C82.0967283,22.2751217 83.3455968,22.4567942 84.4999956,22.7270042 L84.4999956,26.6707058 C83.4873754,26.4319363 82.3454342,26.2768102 81.0741718,26.2053276 C79.8029093,26.1338451 78.6157353,26.0981038 77.5126497,26.0981038 C75.7866871,26.0981038 74.4489103,26.5393825 73.4993194,27.42194 C72.5497285,28.3044975 72.074933,29.516809 72.074933,31.0588747 C72.074933,32.2233582 72.4057252,33.2075039 73.0673096,34.0113119 C73.7288941,34.8151199 74.6825633,35.2170239 75.9283174,35.2170239 C77.3128842,35.2170239 78.7747173,34.735184 80.3138168,33.7715043 C81.8529164,32.8078245 83.1533947,31.3870716 84.2152518,29.5092455 L85.1184235,33.9868417 C84.4394875,34.7864972 83.5977878,35.6424341 82.5933244,36.5546524 C81.588861,37.4668707 80.4261572,38.2442806 79.1052129,38.8868821 C77.7842686,39.5294836 76.2941836,39.8507843 74.6349577,39.8507843 C72.7532758,39.8507843 71.190151,39.4342724 69.9455833,38.6012485 C68.7010156,37.7682246 67.7747084,36.7104458 67.1666618,35.4279123 C66.5586151,34.1453788 66.2545918,32.8269557 66.2545918,31.472643 Z M90,36.498371 C89.8605942,37.0379012 89.5800771,37.6067214 89.1584486,38.2048317 C88.7368202,38.802942 88.287533,39.2465936 87.8105871,39.5357865 C86.6188157,39.3014661 85.6521698,38.860484 84.9106495,38.2128401 C84.1691292,37.5651963 83.6193661,36.7882313 83.2613601,35.8819452 C82.9033541,34.9756591 82.6880166,34.0255491 82.6153476,33.0316153 L82.6153476,20.1816616 C82.6153476,18.4031993 82.2089203,17.1195535 81.3960657,16.3307242 C80.5832112,15.5418949 79.4392678,15.1474802 77.9642356,15.1474802 C76.5408132,15.1474802 75.0678573,15.3635592 73.5453678,15.7957173 C72.0228783,16.2278753 70.5055794,16.735965 68.9934712,17.3199864 C68.52661,16.8563879 68.1360513,16.2130449 67.821795,15.3899574 C67.5075387,14.5668698 67.3336522,13.770477 67.3001355,13.0007789 C68.370001,12.542816 69.5757871,12.116516 70.917494,11.7218789 C72.2592008,11.3272418 73.640579,11.0087588 75.0616285,10.7664299 C76.482678,10.5241011 77.8374356,10.4029367 79.1259013,10.4029367 C80.9927528,10.4029367 82.6213539,10.7451483 84.0117045,11.4295716 C85.402055,12.1139948 86.4819311,13.16028 87.2513325,14.568427 C88.020734,15.9765741 88.4054347,17.769496 88.4054347,19.9471929 L88.4054347,31.6283623 C88.4054347,32.6899227 88.5107306,33.626018 88.7213224,34.436648 C88.9319141,35.247278 89.35814,35.934519 90,36.498371 Z" id="Shape"></path>
        </g>
    </g>
</svg>