<?xml version="1.0" encoding="UTF-8"?>
<svg width="300px" height="300px" viewBox="0 0 300 300" version="1.1" xmlns="http://www.w3.org/2000/svg" xmlns:xlink="http://www.w3.org/1999/xlink">
    <defs>
        <polygon id="path-1" points="3.79 0 3.79 49.98 13.73 49.98 13.73 0"></polygon>
        <polygon id="path-2" points="19.1576923 0 19.1576923 49.98 29.0976923 49.98 29.0976923 0"></polygon>
        <path d="M33.8253846,24.92 C33.9653846,22.5866667 34.5487179,20.65 35.5753846,19.11 C36.6020513,17.57 37.9087179,16.3333333 39.4953846,15.4 C41.0820513,14.4666667 42.8670513,13.8016667 44.8503846,13.405 C46.8337179,13.0083333 48.8287179,12.81 50.8353846,12.81 C52.6553846,12.81 54.4987179,12.9383333 56.3653846,13.195 C58.2320513,13.4516667 59.9353846,13.9533333 61.4753846,14.7 C63.0153846,15.4466667 64.2753846,16.485 65.2553846,17.815 C66.2353846,19.145 66.7253846,20.9066667 66.7253846,23.1 L66.7253846,41.93 C66.7253846,43.5633333 66.8187179,45.1266667 67.0053846,46.62 C67.1920513,48.1133333 67.5187179,49.2333333 67.9853846,49.98 L57.9053846,49.98 C57.7187179,49.42 57.5670513,48.8483333 57.4503846,48.265 C57.3337179,47.6816667 57.2520513,47.0866667 57.2053846,46.48 C55.6187179,48.1133333 53.7520513,49.2566667 51.6053846,49.91 C49.4587179,50.5633333 47.2653846,50.89 45.0253846,50.89 C43.2987179,50.89 41.6887179,50.68 40.1953846,50.26 C38.7020513,49.84 37.3953846,49.1866667 36.2753846,48.3 C35.1553846,47.4133333 34.2803846,46.2933333 33.6503846,44.94 C33.0203846,43.5866667 32.7053846,41.9766667 32.7053846,40.11 C32.7053846,38.0566667 33.0670513,36.365 33.7903846,35.035 C34.5137179,33.705 35.4470513,32.6433333 36.5903846,31.85 C37.7337179,31.0566667 39.0403846,30.4616667 40.5103846,30.065 C41.9803846,29.6683333 43.4620513,29.3533333 44.9553846,29.12 C46.4487179,28.8866667 47.9187179,28.7 49.3653846,28.56 C50.8120513,28.42 52.0953846,28.21 53.2153846,27.93 C54.3353846,27.65 55.2220513,27.2416667 55.8753846,26.705 C56.5287179,26.1683333 56.8320513,25.3866667 56.7853846,24.36 C56.7853846,23.2866667 56.6103846,22.435 56.2603846,21.805 C55.9103846,21.175 55.4437179,20.685 54.8603846,20.335 C54.2770513,19.985 53.6003846,19.7516667 52.8303846,19.635 C52.0603846,19.5183333 51.2320513,19.46 50.3453846,19.46 C48.3853846,19.46 46.8453846,19.88 45.7253846,20.72 C44.6053846,21.56 43.9520513,22.96 43.7653846,24.92 L33.8253846,24.92 Z M56.7853846,32.27 C56.3653846,32.6433333 55.8403846,32.935 55.2103846,33.145 C54.5803846,33.355 53.9037179,33.53 53.1803846,33.67 C52.4570513,33.81 51.6987179,33.9266667 50.9053846,34.02 C50.1120513,34.1133333 49.3187179,34.23 48.5253846,34.37 C47.7787179,34.51 47.0437179,34.6966667 46.3203846,34.93 C45.5970513,35.1633333 44.9670513,35.4783333 44.4303846,35.875 C43.8937179,36.2716667 43.4620513,36.7733333 43.1353846,37.38 C42.8087179,37.9866667 42.6453846,38.7566667 42.6453846,39.69 C42.6453846,40.5766667 42.8087179,41.3233333 43.1353846,41.93 C43.4620513,42.5366667 43.9053846,43.015 44.4653846,43.365 C45.0253846,43.715 45.6787179,43.96 46.4253846,44.1 C47.1720513,44.24 47.9420513,44.31 48.7353846,44.31 C50.6953846,44.31 52.2120513,43.9833333 53.2853846,43.33 C54.3587179,42.6766667 55.1520513,41.895 55.6653846,40.985 C56.1787179,40.075 56.4937179,39.1533333 56.6103846,38.22 C56.7270513,37.2866667 56.7853846,36.54 56.7853846,35.98 L56.7853846,32.27 Z" id="path-3"></path>
        <path d="M72.0130769,13.79 L72.0130769,49.98 L81.9530769,49.98 L81.9530769,28.98 C81.9530769,27.2066667 82.2097436,25.7716667 82.7230769,24.675 C83.2364103,23.5783333 83.8547436,22.7383333 84.5780769,22.155 C85.3014103,21.5716667 86.0480769,21.175 86.8180769,20.965 C87.5880769,20.755 88.2064103,20.65 88.6730769,20.65 C90.2597436,20.65 91.4614103,20.9183333 92.2780769,21.455 C93.0947436,21.9916667 93.6780769,22.7033333 94.0280769,23.59 C94.3780769,24.4766667 94.5764103,25.445 94.6230769,26.495 C94.6697436,27.545 94.6930769,28.6066667 94.6930769,29.68 L94.6930769,49.98 L104.633077,49.98 L104.633077,29.82 C104.633077,28.7 104.714744,27.5916667 104.878077,26.495 C105.04141,25.3983333 105.368077,24.4183333 105.858077,23.555 C106.348077,22.6916667 107.024744,21.9916667 107.888077,21.455 C108.75141,20.9183333 109.883077,20.65 111.283077,20.65 C112.683077,20.65 113.79141,20.8833333 114.608077,21.35 C115.424744,21.8166667 116.043077,22.4466667 116.463077,23.24 C116.883077,24.0333333 117.139744,24.9666667 117.233077,26.04 C117.32641,27.1133333 117.373077,28.2566667 117.373077,29.47 L117.373077,49.98 L127.313077,49.98 L127.313077,25.76 C127.313077,23.4266667 126.98641,21.4316667 126.333077,19.775 C125.679744,18.1183333 124.769744,16.7766667 123.603077,15.75 C122.43641,14.7233333 121.03641,13.9766667 119.403077,13.51 C117.769744,13.0433333 115.99641,12.81 114.083077,12.81 C111.563077,12.81 109.38141,13.4166667 107.538077,14.63 C105.694744,15.8433333 104.23641,17.2433333 103.163077,18.83 C102.183077,16.59 100.748077,15.0266667 98.8580769,14.14 C96.9680769,13.2533333 94.8797436,12.81 92.5930769,12.81 C90.2130769,12.81 88.1014103,13.3233333 86.2580769,14.35 C84.4147436,15.3766667 82.8397436,16.8233333 81.5330769,18.69 L81.3930769,18.69 L81.3930769,13.79 L72.0130769,13.79 Z" id="path-4"></path>
        <path d="M132.040769,24.92 C132.180769,22.5866667 132.764103,20.65 133.790769,19.11 C134.817436,17.57 136.124103,16.3333333 137.710769,15.4 C139.297436,14.4666667 141.082436,13.8016667 143.065769,13.405 C145.049103,13.0083333 147.044103,12.81 149.050769,12.81 C150.870769,12.81 152.714103,12.9383333 154.580769,13.195 C156.447436,13.4516667 158.150769,13.9533333 159.690769,14.7 C161.230769,15.4466667 162.490769,16.485 163.470769,17.815 C164.450769,19.145 164.940769,20.9066667 164.940769,23.1 L164.940769,41.93 C164.940769,43.5633333 165.034103,45.1266667 165.220769,46.62 C165.407436,48.1133333 165.734103,49.2333333 166.200769,49.98 L156.120769,49.98 C155.934103,49.42 155.782436,48.8483333 155.665769,48.265 C155.549103,47.6816667 155.467436,47.0866667 155.420769,46.48 C153.834103,48.1133333 151.967436,49.2566667 149.820769,49.91 C147.674103,50.5633333 145.480769,50.89 143.240769,50.89 C141.514103,50.89 139.904103,50.68 138.410769,50.26 C136.917436,49.84 135.610769,49.1866667 134.490769,48.3 C133.370769,47.4133333 132.495769,46.2933333 131.865769,44.94 C131.235769,43.5866667 130.920769,41.9766667 130.920769,40.11 C130.920769,38.0566667 131.282436,36.365 132.005769,35.035 C132.729103,33.705 133.662436,32.6433333 134.805769,31.85 C135.949103,31.0566667 137.255769,30.4616667 138.725769,30.065 C140.195769,29.6683333 141.677436,29.3533333 143.170769,29.12 C144.664103,28.8866667 146.134103,28.7 147.580769,28.56 C149.027436,28.42 150.310769,28.21 151.430769,27.93 C152.550769,27.65 153.437436,27.2416667 154.090769,26.705 C154.744103,26.1683333 155.047436,25.3866667 155.000769,24.36 C155.000769,23.2866667 154.825769,22.435 154.475769,21.805 C154.125769,21.175 153.659103,20.685 153.075769,20.335 C152.492436,19.985 151.815769,19.7516667 151.045769,19.635 C150.275769,19.5183333 149.447436,19.46 148.560769,19.46 C146.600769,19.46 145.060769,19.88 143.940769,20.72 C142.820769,21.56 142.167436,22.96 141.980769,24.92 L132.040769,24.92 Z M155.000769,32.27 C154.580769,32.6433333 154.055769,32.935 153.425769,33.145 C152.795769,33.355 152.119103,33.53 151.395769,33.67 C150.672436,33.81 149.914103,33.9266667 149.120769,34.02 C148.327436,34.1133333 147.534103,34.23 146.740769,34.37 C145.994103,34.51 145.259103,34.6966667 144.535769,34.93 C143.812436,35.1633333 143.182436,35.4783333 142.645769,35.875 C142.109103,36.2716667 141.677436,36.7733333 141.350769,37.38 C141.024103,37.9866667 140.860769,38.7566667 140.860769,39.69 C140.860769,40.5766667 141.024103,41.3233333 141.350769,41.93 C141.677436,42.5366667 142.120769,43.015 142.680769,43.365 C143.240769,43.715 143.894103,43.96 144.640769,44.1 C145.387436,44.24 146.157436,44.31 146.950769,44.31 C148.910769,44.31 150.427436,43.9833333 151.500769,43.33 C152.574103,42.6766667 153.367436,41.895 153.880769,40.985 C154.394103,40.075 154.709103,39.1533333 154.825769,38.22 C154.942436,37.2866667 155.000769,36.54 155.000769,35.98 L155.000769,32.27 Z" id="path-5"></path>
        <polygon id="path-6" points="28.755 104.98 36.09 81.715 29.52 81.715 25.245 97.465 25.155 97.465 21.195 81.715 14.985 81.715 11.115 97.51 11.025 97.51 6.75 81.715 0 81.715 7.38 104.98 13.995 104.98 17.955 89.365 18.045 89.365 22.185 104.98"></polygon>
        <path d="M42.7292308,93.37 C42.7292308,92.44 42.8192308,91.525 42.9992308,90.625 C43.1792308,89.725 43.4867308,88.93 43.9217308,88.24 C44.3567308,87.55 44.9342308,86.9875 45.6542308,86.5525 C46.3742308,86.1175 47.2742308,85.9 48.3542308,85.9 C49.4342308,85.9 50.3417308,86.1175 51.0767308,86.5525 C51.8117308,86.9875 52.3967308,87.55 52.8317308,88.24 C53.2667308,88.93 53.5742308,89.725 53.7542308,90.625 C53.9342308,91.525 54.0242308,92.44 54.0242308,93.37 C54.0242308,94.3 53.9342308,95.2075 53.7542308,96.0925 C53.5742308,96.9775 53.2667308,97.7725 52.8317308,98.4775 C52.3967308,99.1825 51.8117308,99.745 51.0767308,100.165 C50.3417308,100.585 49.4342308,100.795 48.3542308,100.795 C47.2742308,100.795 46.3742308,100.585 45.6542308,100.165 C44.9342308,99.745 44.3567308,99.1825 43.9217308,98.4775 C43.4867308,97.7725 43.1792308,96.9775 42.9992308,96.0925 C42.8192308,95.2075 42.7292308,94.3 42.7292308,93.37 Z M36.3392308,93.37 C36.3392308,95.23 36.6242308,96.91 37.1942308,98.41 C37.7642308,99.91 38.5742308,101.1925 39.6242308,102.2575 C40.6742308,103.3225 41.9342308,104.14 43.4042308,104.71 C44.8742308,105.28 46.5242308,105.565 48.3542308,105.565 C50.1842308,105.565 51.8417308,105.28 53.3267308,104.71 C54.8117308,104.14 56.0792308,103.3225 57.1292308,102.2575 C58.1792308,101.1925 58.9892308,99.91 59.5592308,98.41 C60.1292308,96.91 60.4142308,95.23 60.4142308,93.37 C60.4142308,91.51 60.1292308,89.8225 59.5592308,88.3075 C58.9892308,86.7925 58.1792308,85.5025 57.1292308,84.4375 C56.0792308,83.3725 54.8117308,82.5475 53.3267308,81.9625 C51.8417308,81.3775 50.1842308,81.085 48.3542308,81.085 C46.5242308,81.085 44.8742308,81.3775 43.4042308,81.9625 C41.9342308,82.5475 40.6742308,83.3725 39.6242308,84.4375 C38.5742308,85.5025 37.7642308,86.7925 37.1942308,88.3075 C36.6242308,89.8225 36.3392308,91.51 36.3392308,93.37 Z" id="path-7"></path>
        <path d="M62.8234615,81.715 L62.8234615,104.98 L69.2134615,104.98 L69.2134615,94.495 C69.2134615,93.445 69.3184615,92.47 69.5284615,91.57 C69.7384615,90.67 70.0909615,89.8825 70.5859615,89.2075 C71.0809615,88.5325 71.7334615,88 72.5434615,87.61 C73.3534615,87.22 74.3434615,87.025 75.5134615,87.025 C75.9034615,87.025 76.3084615,87.0475 76.7284615,87.0925 C77.1484615,87.1375 77.5084615,87.19 77.8084615,87.25 L77.8084615,81.31 C77.2984615,81.16 76.8334615,81.085 76.4134615,81.085 C75.6034615,81.085 74.8234615,81.205 74.0734615,81.445 C73.3234615,81.685 72.6184615,82.0225 71.9584615,82.4575 C71.2984615,82.8925 70.7134615,83.4175 70.2034615,84.0325 C69.6934615,84.6475 69.2884615,85.315 68.9884615,86.035 L68.8984615,86.035 L68.8984615,81.715 L62.8234615,81.715 Z" id="path-8"></path>
        <polygon id="path-9" points="79.1826923 72.85 79.1826923 104.98 85.5726923 104.98 85.5726923 96.97 88.0476923 94.585 94.4376923 104.98 102.177692 104.98 92.4126923 90.265 101.187692 81.715 93.6276923 81.715 85.5726923 90.085 85.5726923 72.85"></polygon>
        <path d="M107.646923,97.42 L101.571923,97.42 C101.631923,98.98 101.984423,100.2775 102.629423,101.3125 C103.274423,102.3475 104.099423,103.18 105.104423,103.81 C106.109423,104.44 107.256923,104.89 108.546923,105.16 C109.836923,105.43 111.156923,105.565 112.506923,105.565 C113.826923,105.565 115.124423,105.4375 116.399423,105.1825 C117.674423,104.9275 118.806923,104.485 119.796923,103.855 C120.786923,103.225 121.589423,102.3925 122.204423,101.3575 C122.819423,100.3225 123.126923,99.04 123.126923,97.51 C123.126923,96.43 122.916923,95.5225 122.496923,94.7875 C122.076923,94.0525 121.521923,93.4375 120.831923,92.9425 C120.141923,92.4475 119.354423,92.05 118.469423,91.75 C117.584423,91.45 116.676923,91.195 115.746923,90.985 C114.846923,90.775 113.961923,90.58 113.091923,90.4 C112.221923,90.22 111.449423,90.0175 110.774423,89.7925 C110.099423,89.5675 109.551923,89.275 109.131923,88.915 C108.711923,88.555 108.501923,88.09 108.501923,87.52 C108.501923,87.04 108.621923,86.6575 108.861923,86.3725 C109.101923,86.0875 109.394423,85.87 109.739423,85.72 C110.084423,85.57 110.466923,85.4725 110.886923,85.4275 C111.306923,85.3825 111.696923,85.36 112.056923,85.36 C113.196923,85.36 114.186923,85.5775 115.026923,86.0125 C115.866923,86.4475 116.331923,87.28 116.421923,88.51 L122.496923,88.51 C122.376923,87.07 122.009423,85.8775 121.394423,84.9325 C120.779423,83.9875 120.006923,83.23 119.076923,82.66 C118.146923,82.09 117.089423,81.685 115.904423,81.445 C114.719423,81.205 113.496923,81.085 112.236923,81.085 C110.976923,81.085 109.746923,81.1975 108.546923,81.4225 C107.346923,81.6475 106.266923,82.0375 105.306923,82.5925 C104.346923,83.1475 103.574423,83.905 102.989423,84.865 C102.404423,85.825 102.111923,87.055 102.111923,88.555 C102.111923,89.575 102.321923,90.4375 102.741923,91.1425 C103.161923,91.8475 103.716923,92.4325 104.406923,92.8975 C105.096923,93.3625 105.884423,93.7375 106.769423,94.0225 C107.654423,94.3075 108.561923,94.555 109.491923,94.765 C111.771923,95.245 113.549423,95.725 114.824423,96.205 C116.099423,96.685 116.736923,97.405 116.736923,98.365 C116.736923,98.935 116.601923,99.4075 116.331923,99.7825 C116.061923,100.1575 115.724423,100.4575 115.319423,100.6825 C114.914423,100.9075 114.464423,101.0725 113.969423,101.1775 C113.474423,101.2825 113.001923,101.335 112.551923,101.335 C111.921923,101.335 111.314423,101.26 110.729423,101.11 C110.144423,100.96 109.626923,100.7275 109.176923,100.4125 C108.726923,100.0975 108.359423,99.6925 108.074423,99.1975 C107.789423,98.7025 107.646923,98.11 107.646923,97.42 Z" id="path-10"></path>
        <path d="M136.876154,100.795 C135.856154,100.795 134.986154,100.585 134.266154,100.165 C133.546154,99.745 132.968654,99.1975 132.533654,98.5225 C132.098654,97.8475 131.783654,97.06 131.588654,96.16 C131.393654,95.26 131.296154,94.345 131.296154,93.415 C131.296154,92.455 131.386154,91.525 131.566154,90.625 C131.746154,89.725 132.053654,88.93 132.488654,88.24 C132.923654,87.55 133.493654,86.9875 134.198654,86.5525 C134.903654,86.1175 135.781154,85.9 136.831154,85.9 C137.851154,85.9 138.713654,86.1175 139.418654,86.5525 C140.123654,86.9875 140.701154,87.5575 141.151154,88.2625 C141.601154,88.9675 141.923654,89.77 142.118654,90.67 C142.313654,91.57 142.411154,92.485 142.411154,93.415 C142.411154,94.345 142.321154,95.26 142.141154,96.16 C141.961154,97.06 141.653654,97.8475 141.218654,98.5225 C140.783654,99.1975 140.213654,99.745 139.508654,100.165 C138.803654,100.585 137.926154,100.795 136.876154,100.795 Z M125.131154,81.715 L125.131154,113.125 L131.521154,113.125 L131.521154,102.1 L131.611154,102.1 C132.391154,103.24 133.388654,104.1025 134.603654,104.6875 C135.818654,105.2725 137.146154,105.565 138.586154,105.565 C140.296154,105.565 141.788654,105.235 143.063654,104.575 C144.338654,103.915 145.403654,103.03 146.258654,101.92 C147.113654,100.81 147.751154,99.535 148.171154,98.095 C148.591154,96.655 148.801154,95.155 148.801154,93.595 C148.801154,91.945 148.591154,90.3625 148.171154,88.8475 C147.751154,87.3325 147.106154,86.005 146.236154,84.865 C145.366154,83.725 144.271154,82.81 142.951154,82.12 C141.631154,81.43 140.056154,81.085 138.226154,81.085 C136.786154,81.085 135.466154,81.37 134.266154,81.94 C133.066154,82.51 132.076154,83.425 131.296154,84.685 L131.206154,84.685 L131.206154,81.715 L125.131154,81.715 Z" id="path-11"></path>
        <path d="M150.625385,88.87 C150.715385,87.37 151.090385,86.125 151.750385,85.135 C152.410385,84.145 153.250385,83.35 154.270385,82.75 C155.290385,82.15 156.437885,81.7225 157.712885,81.4675 C158.987885,81.2125 160.270385,81.085 161.560385,81.085 C162.730385,81.085 163.915385,81.1675 165.115385,81.3325 C166.315385,81.4975 167.410385,81.82 168.400385,82.3 C169.390385,82.78 170.200385,83.4475 170.830385,84.3025 C171.460385,85.1575 171.775385,86.29 171.775385,87.7 L171.775385,99.805 C171.775385,100.855 171.835385,101.86 171.955385,102.82 C172.075385,103.78 172.285385,104.5 172.585385,104.98 L166.105385,104.98 C165.985385,104.62 165.887885,104.2525 165.812885,103.8775 C165.737885,103.5025 165.685385,103.12 165.655385,102.73 C164.635385,103.78 163.435385,104.515 162.055385,104.935 C160.675385,105.355 159.265385,105.565 157.825385,105.565 C156.715385,105.565 155.680385,105.43 154.720385,105.16 C153.760385,104.89 152.920385,104.47 152.200385,103.9 C151.480385,103.33 150.917885,102.61 150.512885,101.74 C150.107885,100.87 149.905385,99.835 149.905385,98.635 C149.905385,97.315 150.137885,96.2275 150.602885,95.3725 C151.067885,94.5175 151.667885,93.835 152.402885,93.325 C153.137885,92.815 153.977885,92.4325 154.922885,92.1775 C155.867885,91.9225 156.820385,91.72 157.780385,91.57 C158.740385,91.42 159.685385,91.3 160.615385,91.21 C161.545385,91.12 162.370385,90.985 163.090385,90.805 C163.810385,90.625 164.380385,90.3625 164.800385,90.0175 C165.220385,89.6725 165.415385,89.17 165.385385,88.51 C165.385385,87.82 165.272885,87.2725 165.047885,86.8675 C164.822885,86.4625 164.522885,86.1475 164.147885,85.9225 C163.772885,85.6975 163.337885,85.5475 162.842885,85.4725 C162.347885,85.3975 161.815385,85.36 161.245385,85.36 C159.985385,85.36 158.995385,85.63 158.275385,86.17 C157.555385,86.71 157.135385,87.61 157.015385,88.87 L150.625385,88.87 Z M165.385385,93.595 C165.115385,93.835 164.777885,94.0225 164.372885,94.1575 C163.967885,94.2925 163.532885,94.405 163.067885,94.495 C162.602885,94.585 162.115385,94.66 161.605385,94.72 C161.095385,94.78 160.585385,94.855 160.075385,94.945 C159.595385,95.035 159.122885,95.155 158.657885,95.305 C158.192885,95.455 157.787885,95.6575 157.442885,95.9125 C157.097885,96.1675 156.820385,96.49 156.610385,96.88 C156.400385,97.27 156.295385,97.765 156.295385,98.365 C156.295385,98.935 156.400385,99.415 156.610385,99.805 C156.820385,100.195 157.105385,100.5025 157.465385,100.7275 C157.825385,100.9525 158.245385,101.11 158.725385,101.2 C159.205385,101.29 159.700385,101.335 160.210385,101.335 C161.470385,101.335 162.445385,101.125 163.135385,100.705 C163.825385,100.285 164.335385,99.7825 164.665385,99.1975 C164.995385,98.6125 165.197885,98.02 165.272885,97.42 C165.347885,96.82 165.385385,96.34 165.385385,95.98 L165.385385,93.595 Z" id="path-12"></path>
        <path d="M190.834615,89.905 L197.089615,89.905 C196.999615,88.405 196.639615,87.1075 196.009615,86.0125 C195.379615,84.9175 194.562115,84.0025 193.557115,83.2675 C192.552115,82.5325 191.412115,81.985 190.137115,81.625 C188.862115,81.265 187.534615,81.085 186.154615,81.085 C184.264615,81.085 182.584615,81.4 181.114615,82.03 C179.644615,82.66 178.399615,83.5375 177.379615,84.6625 C176.359615,85.7875 175.587115,87.1225 175.062115,88.6675 C174.537115,90.2125 174.274615,91.885 174.274615,93.685 C174.274615,95.425 174.559615,97.0225 175.129615,98.4775 C175.699615,99.9325 176.494615,101.185 177.514615,102.235 C178.534615,103.285 179.772115,104.1025 181.227115,104.6875 C182.682115,105.2725 184.279615,105.565 186.019615,105.565 C189.109615,105.565 191.644615,104.755 193.624615,103.135 C195.604615,101.515 196.804615,99.16 197.224615,96.07 L191.059615,96.07 C190.849615,97.51 190.332115,98.6575 189.507115,99.5125 C188.682115,100.3675 187.504615,100.795 185.974615,100.795 C184.984615,100.795 184.144615,100.57 183.454615,100.12 C182.764615,99.67 182.217115,99.0925 181.812115,98.3875 C181.407115,97.6825 181.114615,96.895 180.934615,96.025 C180.754615,95.155 180.664615,94.3 180.664615,93.46 C180.664615,92.59 180.754615,91.7125 180.934615,90.8275 C181.114615,89.9425 181.422115,89.1325 181.857115,88.3975 C182.292115,87.6625 182.854615,87.0625 183.544615,86.5975 C184.234615,86.1325 185.089615,85.9 186.109615,85.9 C188.839615,85.9 190.414615,87.235 190.834615,89.905 Z" id="path-13"></path>
        <path d="M214.753846,90.85 L204.358846,90.85 C204.388846,90.4 204.486346,89.89 204.651346,89.32 C204.816346,88.75 205.101346,88.21 205.506346,87.7 C205.911346,87.19 206.451346,86.7625 207.126346,86.4175 C207.801346,86.0725 208.648846,85.9 209.668846,85.9 C211.228846,85.9 212.391346,86.32 213.156346,87.16 C213.921346,88 214.453846,89.23 214.753846,90.85 Z M204.358846,94.9 L221.143846,94.9 C221.263846,93.1 221.113846,91.375 220.693846,89.725 C220.273846,88.075 219.591346,86.605 218.646346,85.315 C217.701346,84.025 216.493846,82.9975 215.023846,82.2325 C213.553846,81.4675 211.828846,81.085 209.848846,81.085 C208.078846,81.085 206.466346,81.4 205.011346,82.03 C203.556346,82.66 202.303846,83.5225 201.253846,84.6175 C200.203846,85.7125 199.393846,87.01 198.823846,88.51 C198.253846,90.01 197.968846,91.63 197.968846,93.37 C197.968846,95.17 198.246346,96.82 198.801346,98.32 C199.356346,99.82 200.143846,101.11 201.163846,102.19 C202.183846,103.27 203.428846,104.1025 204.898846,104.6875 C206.368846,105.2725 208.018846,105.565 209.848846,105.565 C212.488846,105.565 214.738846,104.965 216.598846,103.765 C218.458846,102.565 219.838846,100.57 220.738846,97.78 L215.113846,97.78 C214.903846,98.5 214.333846,99.1825 213.403846,99.8275 C212.473846,100.4725 211.363846,100.795 210.073846,100.795 C208.273846,100.795 206.893846,100.33 205.933846,99.4 C204.973846,98.47 204.448846,96.97 204.358846,94.9 Z" id="path-14"></path>
    </defs>
    <g id="Page-1" stroke="none" stroke-width="1" fill="none" fill-rule="evenodd">
        <g id="Group-3">
            <rect id="Rectangle" fill="#000000" x="0" y="0" width="300" height="300" rx="8"></rect>
            <g id="llama-workspace" transform="translate(25.27, 155.02)" fill-rule="nonzero">
                <g id="Path">
                    <use fill="#000000" xlink:href="#path-1"></use>
                    <use fill="#FFFFFF" xlink:href="#path-1"></use>
                </g>
                <g id="Path">
                    <use fill="#000000" xlink:href="#path-2"></use>
                    <use fill="#FFFFFF" xlink:href="#path-2"></use>
                </g>
                <g id="Shape">
                    <use fill="#000000" xlink:href="#path-3"></use>
                    <use fill="#FFFFFF" xlink:href="#path-3"></use>
                </g>
                <g id="Path">
                    <use fill="#000000" xlink:href="#path-4"></use>
                    <use fill="#FFFFFF" xlink:href="#path-4"></use>
                </g>
                <g id="Shape">
                    <use fill="#000000" xlink:href="#path-5"></use>
                    <use fill="#FFFFFF" xlink:href="#path-5"></use>
                </g>
                <g id="Path">
                    <use fill="#000000" xlink:href="#path-6"></use>
                    <use fill="#FFFFFF" xlink:href="#path-6"></use>
                </g>
                <g id="Shape">
                    <use fill="#000000" xlink:href="#path-7"></use>
                    <use fill="#FFFFFF" xlink:href="#path-7"></use>
                </g>
                <g id="Path">
                    <use fill="#000000" xlink:href="#path-8"></use>
                    <use fill="#FFFFFF" xlink:href="#path-8"></use>
                </g>
                <g id="Path">
                    <use fill="#000000" xlink:href="#path-9"></use>
                    <use fill="#FFFFFF" xlink:href="#path-9"></use>
                </g>
                <g id="Path">
                    <use fill="#000000" xlink:href="#path-10"></use>
                    <use fill="#FFFFFF" xlink:href="#path-10"></use>
                </g>
                <g id="Shape">
                    <use fill="#000000" xlink:href="#path-11"></use>
                    <use fill="#FFFFFF" xlink:href="#path-11"></use>
                </g>
                <g id="Shape">
                    <use fill="#000000" xlink:href="#path-12"></use>
                    <use fill="#FFFFFF" xlink:href="#path-12"></use>
                </g>
                <g id="Path">
                    <use fill="#000000" xlink:href="#path-13"></use>
                    <use fill="#FFFFFF" xlink:href="#path-13"></use>
                </g>
                <g id="Shape">
                    <use fill="#000000" xlink:href="#path-14"></use>
                    <use fill="#FFFFFF" xlink:href="#path-14"></use>
                </g>
            </g>
        </g>
    </g>
</svg>