<?xml version="1.0" standalone="no"?>
<!DOCTYPE svg PUBLIC "-//W3C//DTD SVG 20010904//EN"
 "http://www.w3.org/TR/2001/REC-SVG-20010904/DTD/svg10.dtd">
<svg version="1.0" xmlns="http://www.w3.org/2000/svg"
 width="216.000000pt" height="216.000000pt" viewBox="0 0 216.000000 216.000000"
 preserveAspectRatio="xMidYMid meet">
<metadata>
Created by potrace 1.14, written by Peter Selinger 2001-2017
</metadata>
<g transform="translate(0.000000,216.000000) scale(0.100000,-0.100000)"
fill="#000000" stroke="none">
<path d="M895 1955 c-106 -18 -122 -22 -199 -46 -279 -86 -477 -269 -560 -519
-36 -110 -41 -147 -41 -330 1 -207 27 -319 109 -455 65 -109 28 -205 -142
-370 -31 -30 -52 -55 -47 -56 6 0 280 -2 610 -4 471 -3 622 -1 703 10 97 13
233 45 277 64 11 5 46 21 78 35 242 106 414 329 461 599 14 80 15 296 2 378
-38 239 -205 468 -421 577 -107 54 -217 91 -319 108 -21 3 -48 8 -60 11 -47
13 -373 11 -451 -2z m447 -498 c65 -12 108 -19 115 -19 24 -2 151 -51 195 -75
150 -82 217 -223 190 -400 -14 -90 -42 -142 -107 -202 -115 -106 -317 -160
-610 -162 -222 -1 -386 30 -516 98 -152 78 -212 188 -204 370 5 110 48 192
137 258 82 61 182 101 303 121 22 3 60 10 85 14 47 7 364 5 412 -3z"/>
</g>
</svg>
