<?xml version="1.0" standalone="no"?>
<!DOCTYPE svg PUBLIC "-//W3C//DTD SVG 20010904//EN"
 "http://www.w3.org/TR/2001/REC-SVG-20010904/DTD/svg10.dtd">
<svg version="1.0" xmlns="http://www.w3.org/2000/svg"
 width="557.000000pt" height="557.000000pt" viewBox="0 0 557.000000 557.000000"
 preserveAspectRatio="xMidYMid meet">
<metadata>
Created by potrace 1.14, written by Peter Selinger 2001-2017
</metadata>
<g transform="translate(0.000000,557.000000) scale(0.100000,-0.100000)"
fill="#000000" stroke="none">
<path d="M2223 5372 c-209 -243 -254 -297 -244 -297 3 0 -7 -169 -15 -230 -1
-11 -5 -62 -9 -114 l-8 -95 144 125 c240 207 215 176 223 277 3 48 8 103 10
122 4 34 11 103 21 220 3 30 8 74 10 98 3 23 3 42 1 42 -3 0 -63 -67 -133
-148z"/>
<path d="M2242 4567 l-202 -202 537 -269 538 -268 175 57 c96 31 216 70 265
85 50 16 188 60 308 99 119 39 219 71 222 71 7 0 -155 312 -169 328 -7 7 -26
15 -42 18 -16 3 -60 11 -99 19 -38 8 -81 16 -95 19 -14 2 -59 11 -100 20 -41
8 -88 18 -105 21 -29 5 -48 8 -105 20 -14 2 -38 7 -55 10 -16 3 -41 7 -55 10
-26 6 -166 33 -210 42 -14 2 -137 27 -275 54 -137 27 -266 52 -285 55 -19 3
-38 8 -41 9 -3 2 -96 -87 -207 -198z"/>
<path d="M1899 4178 c-3 -6 -17 -136 -25 -233 -3 -44 -8 -88 -10 -98 -1 -9 -6
-56 -9 -105 -4 -48 -8 -98 -10 -112 -2 -14 -7 -54 -10 -90 -3 -36 -8 -85 -10
-110 -3 -25 -7 -72 -10 -105 -3 -33 -7 -80 -10 -105 -2 -25 -7 -76 -11 -115
-3 -38 -7 -81 -9 -95 -2 -14 -7 -61 -10 -105 -3 -44 -8 -96 -10 -115 -8 -64
-15 -134 -20 -200 -3 -36 -9 -108 -15 -160 -5 -52 -12 -124 -15 -160 -4 -36
-8 -83 -10 -105 -10 -97 -15 -154 -20 -215 -5 -61 -9 -96 -20 -195 -2 -22 -7
-71 -10 -110 -7 -80 -10 -117 -25 -265 -16 -162 -19 -190 -25 -265 -3 -38 -7
-86 -10 -105 -10 -86 -18 -179 -19 -229 l-1 -54 222 -76 c122 -42 225 -80 229
-84 4 -4 15 -7 24 -7 10 0 39 -9 66 -19 27 -11 234 -83 459 -161 226 -78 505
-175 622 -216 116 -41 214 -74 216 -74 3 0 18 -5 34 -11 15 -6 29 -10 30 -10
2 0 18 -6 38 -15 34 -14 35 -14 35 8 0 13 -6 57 -14 98 -8 41 -17 95 -21 120
-9 67 -15 103 -20 120 -2 8 -6 38 -10 65 -3 28 -13 91 -21 140 -8 50 -17 101
-19 115 -2 14 -13 79 -24 145 -11 66 -23 136 -25 155 -4 30 -11 71 -31 190 -2
14 -7 43 -10 65 -4 22 -8 47 -10 55 -2 8 -7 35 -10 60 -3 25 -15 95 -25 155
-10 61 -21 130 -25 155 -4 25 -8 54 -10 65 -1 11 -10 65 -19 120 -10 55 -19
112 -22 128 -2 15 -7 42 -10 60 -3 17 -7 46 -9 62 -3 17 -20 126 -40 242 -19
117 -37 229 -40 250 -3 21 -10 61 -15 88 -9 47 -13 73 -25 163 -3 20 -8 48
-11 62 -3 14 -8 38 -10 53 -8 68 -15 113 -19 127 -2 8 -6 33 -10 55 -3 22 -8
51 -10 65 -2 14 -18 111 -36 215 -17 105 -32 191 -32 191 -7 6 -1067 533
-1068 532z"/>
</g>
</svg>
