<?xml version="1.0" standalone="no"?>
<!DOCTYPE svg PUBLIC "-//W3C//DTD SVG 20010904//EN"
 "http://www.w3.org/TR/2001/REC-SVG-20010904/DTD/svg10.dtd">
<svg version="1.0" xmlns="http://www.w3.org/2000/svg"
 width="557.000000pt" height="557.000000pt" viewBox="0 0 557.000000 557.000000"
 preserveAspectRatio="xMidYMid meet">
<metadata>
Created by potrace 1.14, written by Peter Selinger 2001-2017
</metadata>
<g transform="translate(0.000000,557.000000) scale(0.100000,-0.100000)"
fill="#000000" stroke="none">
<path d="M1874 5343 c-128 -229 -125 -222 -155 -279 -21 -40 -25 -60 -23 -109
2 -33 5 -138 8 -233 2 -96 6 -175 8 -177 2 -3 60 69 128 158 69 89 130 168
137 175 7 7 13 19 14 25 4 48 -9 608 -14 613 -2 2 -48 -76 -103 -173z"/>
<path d="M1984 4553 c-81 -109 -162 -218 -180 -242 -19 -24 -33 -45 -32 -46 3
-2 83 -32 593 -221 204 -75 406 -150 450 -166 44 -16 92 -34 108 -38 23 -7 63
8 275 112 136 66 292 142 347 168 55 26 160 77 232 112 l133 65 -110 166 c-61
91 -118 168 -128 171 -9 3 -66 8 -127 11 -60 3 -121 8 -135 10 -14 2 -70 6
-125 10 -55 3 -122 8 -150 10 -101 8 -211 17 -275 20 -96 6 -219 15 -265 20
-22 3 -80 7 -130 11 -171 11 -190 12 -262 19 l-72 6 -147 -198z"/>
<path d="M1705 3882 c3 -92 7 -257 10 -367 3 -110 8 -276 10 -370 3 -93 7
-253 10 -355 3 -102 7 -273 10 -380 3 -107 7 -269 10 -360 5 -204 14 -513 20
-725 3 -88 7 -263 11 -390 3 -126 7 -279 8 -338 2 -59 5 -109 7 -111 2 -1 114
-27 249 -55 135 -29 283 -61 330 -71 47 -10 213 -46 370 -80 157 -34 294 -63
305 -66 11 -2 34 -7 50 -10 17 -2 46 -9 65 -14 19 -5 49 -12 65 -14 33 -6 40
-8 140 -30 39 -9 122 -27 185 -41 63 -13 167 -35 230 -49 63 -14 116 -24 117
-22 1 1 -5 24 -13 51 -8 28 -17 57 -19 66 -2 8 -11 40 -20 70 -9 30 -52 176
-95 324 -107 370 -183 630 -317 1090 -19 66 -37 127 -38 135 -2 8 -23 78 -46
155 -23 77 -50 169 -60 205 -9 36 -47 164 -82 285 -36 121 -108 371 -162 555
-53 184 -107 371 -120 415 -21 68 -60 204 -70 241 -2 6 -101 45 -222 88 -417
148 -528 187 -548 196 -11 5 -40 15 -65 23 -25 8 -109 38 -188 66 l-143 50 6
-167z"/>
</g>
</svg>
